stateDiagram
    direction LR
    state "funcA" as state_0
    state "funcB" as state_1
    state "funcC" as state_2
    state "funcD" as state_3
    state "funcE" as state_4
    state "funcF" as state_5
    [*] --> state_0
    state_0 --> state_1: Pipe
    state_0 --> state_2: Pipe
    state_1 --> state_4
    state_2 --> state_4
    state_2 --> state_3: Pipe
    state_3 --> state_4
    state_4 --> state_5
    state_5 --> [*]